<svg xmlns:osb="http://www.openswatchbook.org/uri/2009/osb" xmlns="http://www.w3.org/2000/svg" viewBox="0 0 362.734 512.5">
  <defs>
    <linearGradient osb:paint="solid">
      <stop offset="0"/>
    </linearGradient>
  </defs>
  <path fill="#1ca590" d="M329.688 471.319l-148.543 41.181-148.134-41.123-33.011-370.257h362.734z"/>
  <path fill="#6cc8c2" d="M181.367 131.394v349.629l120.03-33.277 28.24-316.352z"/>
  <path d="M292.855 178.969l-224.231.657 20.01 226.897 49.403 14.679-13.364-106.109 78.76 1.351 11.319 107.424 53.383-15.336-19.352-92.782 33.374.694 10.699-137.474zm-173.513 44.036l126.119 1.351-2.008 42.027-122.102.657-2.008-44.036z" fill="#fff"/>
  <path d="M133.367.5h21.714l8.686 31.771 10.057-30.857h18.286l10.057 32.686 8.686-33.143 22.4.229-20.343 69.943h-18.743l-10.743-33.143-11.2 32.686h-19.2z" stroke="#000"/>
  <path d="M111.648 1.188l-38.625.219-.219 69.031 21.031.219-.25-18.969h3.906l12.344 18.313 24.687-.25-14.656-23.531s7.565.221 12.594-18.75c5.029-18.971-20.813-26.281-20.813-26.281zm-17.969 20.281h12.938s5.813 1.761 4.844 6.125c-.97 4.364-3.561 7.438-5.5 7.438-1.94 0-12.438-.313-12.438-.313l.156-13.25z" stroke="#000"/>
  <path d="M237.586.969v69.25l33.625-.219s1.805-.242 7.063-1.156c5.257-.914 13.749-7.647 16.23-10.872 2.286-2.971 5.044-14.377 5.044-14.377s1.483-12.346.226-17.032c-1.244-4.636-2.363-8.99-6.188-13.5-4.256-5.019-21.469-12.094-21.469-12.094zm21.938 22.281h11.156s4.676.631 5.969 5.156c1.293 4.525.306 14.124.306 14.124s.222 2.198-3.496 5.107c-3.717 2.909-13.873 2.019-13.873 2.019z" stroke="#000"/>
</svg>
